<?xml version="1.0" standalone="no"?>
<!DOCTYPE svg PUBLIC "-//W3C//DTD SVG 20010904//EN"
 "http://www.w3.org/TR/2001/REC-SVG-20010904/DTD/svg10.dtd">
<svg version="1.0" xmlns="http://www.w3.org/2000/svg"
 width="663.000000pt" height="450.000000pt" viewBox="0 0 663.000000 450.000000"
 preserveAspectRatio="xMidYMid meet">

<g transform="translate(0.000000,450.000000) scale(0.100000,-0.100000)"
fill="#000000" stroke="none">
<path d="M3114 4296 c-22 -22 -34 -44 -34 -61 l0 -28 -25 27 c-31 33 -57 33
-96 -2 -25 -22 -32 -36 -33 -69 l-1 -41 -28 15 c-38 19 -77 9 -113 -28 -26
-27 -29 -37 -28 -92 0 -34 2 -71 3 -82 2 -11 0 -37 -4 -57 -4 -20 -4 -45 0
-55 5 -14 11 -8 25 29 22 58 48 92 108 141 95 77 224 127 327 127 166 0 394
-127 450 -250 10 -22 22 -37 26 -34 13 8 11 35 -5 53 -7 9 -18 43 -25 75 -13
72 -34 105 -72 119 -16 7 -29 19 -29 28 0 50 -50 86 -94 69 -23 -8 -26 -7 -26
14 0 24 -28 56 -49 56 -7 0 -25 -9 -40 -19 l-27 -20 -13 34 c-19 53 -64 85
-118 85 -38 0 -50 -5 -79 -34z"/>
<path d="M3141 3799 c-70 -14 -162 -62 -221 -116 -56 -51 -123 -136 -115 -145
3 -3 7 -31 10 -64 3 -32 8 -67 11 -76 4 -13 0 -18 -14 -18 -40 0 -43 -66 -7
-134 26 -49 24 -56 -9 -29 -21 17 -21 17 -3 -2 9 -11 30 -20 45 -21 22 -1 30
6 46 38 12 26 16 50 12 72 -14 75 -8 210 13 276 31 99 61 136 123 155 223 66
409 -10 442 -180 4 -20 1 -15 -10 13 -9 24 -23 46 -31 49 -19 7 -113 -58 -113
-78 0 -23 17 -34 82 -53 74 -21 76 -21 81 12 2 15 5 -14 6 -65 1 -81 -15 -195
-34 -245 -4 -10 -24 -21 -48 -26 -39 -7 -43 -6 -59 20 -10 15 -26 33 -37 40
-18 11 -18 13 -4 35 22 34 10 39 -20 9 -36 -36 -98 -36 -132 -1 -23 22 -25 22
-25 5 0 -10 5 -22 10 -25 6 -4 -3 -19 -20 -36 -16 -17 -30 -35 -30 -40 0 -20
-106 10 -122 35 -5 8 -10 8 -19 -1 -13 -13 -3 -36 14 -30 18 6 78 -27 107 -58
66 -72 204 -75 291 -6 15 11 39 25 53 31 l27 10 -23 -41 c-37 -67 -90 -98
-193 -114 -55 -8 -197 19 -256 48 -27 13 -49 21 -49 17 0 -14 96 -70 151 -89
45 -15 54 -22 54 -42 0 -20 -8 -26 -51 -37 l-51 -14 5 -46 c6 -53 30 -145 31
-120 1 14 12 10 62 -22 57 -36 134 -71 193 -86 21 -5 25 -1 37 33 6 21 24 57
38 80 21 33 26 52 23 84 -4 40 -6 42 -68 70 -35 15 -64 32 -63 36 2 26 19 47
40 50 13 3 29 6 34 7 23 4 131 58 146 72 16 14 18 11 28 -36 24 -112 7 -256
-42 -344 -29 -53 -79 -86 -131 -87 -23 0 -36 -3 -29 -5 6 -3 21 -25 33 -48 23
-48 53 -68 107 -72 21 -1 39 -2 39 -3 1 -1 -2 -19 -7 -41 -13 -57 0 -77 57
-86 25 -3 53 -14 62 -24 9 -9 42 -23 72 -30 72 -17 107 -34 151 -77 41 -39 53
-39 116 4 21 15 56 29 77 32 42 6 40 3 60 93 5 24 9 26 44 21 29 -4 43 -1 57
13 18 19 17 19 -38 25 -59 7 -87 21 -87 46 0 8 -5 11 -10 8 -7 -4 -8 -28 -4
-64 10 -93 13 -92 -259 -36 -127 26 -238 54 -246 60 -11 11 -1 73 63 381 88
421 83 401 99 407 22 8 468 -90 484 -106 14 -14 14 -24 -4 -95 l-19 -80 21 12
c11 6 21 11 22 12 2 0 11 42 22 92 14 71 16 95 7 108 -8 10 -97 33 -280 71
-237 49 -269 54 -283 41 -14 -15 -19 -31 -43 -150 l-11 -58 -39 32 c-30 26
-36 36 -29 50 5 9 9 30 9 45 0 20 9 36 28 50 38 28 62 81 62 137 0 42 -2 46
-24 46 -23 0 -24 2 -15 32 5 21 5 34 -1 38 -7 4 -5 22 5 49 19 54 15 61 -75
144 -88 82 -180 134 -268 152 -75 16 -79 16 -141 4z m182 -686 c-38 -29 -170
-30 -210 -2 -18 12 -7 14 103 14 101 0 121 -2 107 -12z"/>
<path d="M3007 3603 c-45 -89 -26 -115 57 -79 31 14 56 31 56 38 0 7 -15 23
-33 35 -54 37 -64 38 -80 6z"/>
<path d="M3031 3464 c-25 -31 -26 -62 -7 -108 26 -62 79 -56 92 10 8 43 -1 79
-26 104 -26 26 -34 25 -59 -6z m32 -75 c4 -16 3 -18 -9 -8 -16 13 -19 29 -5
29 5 0 11 -9 14 -21z"/>
<path d="M3356 3449 c-37 -43 -37 -111 -1 -135 24 -16 27 -15 45 1 43 39 49
134 10 155 -26 14 -25 14 -54 -21z m24 -66 c-1 -24 -2 -26 -11 -10 -5 9 -7 22
-4 27 10 17 15 11 15 -17z"/>
<path d="M2779 3423 c-13 -16 -12 -17 4 -4 16 13 21 21 13 21 -2 0 -10 -8 -17
-17z"/>
<path d="M2761 3384 c0 -11 3 -14 6 -6 3 7 2 16 -1 19 -3 4 -6 -2 -5 -13z"/>
<path d="M2751 3334 c0 -11 3 -14 6 -6 3 7 2 16 -1 19 -3 4 -6 -2 -5 -13z"/>
<path d="M2760 3284 c0 -10 5 -26 10 -34 8 -11 9 -7 4 15 -8 37 -14 45 -14 19z"/>
<path d="M4120 2854 c-14 -36 21 -108 55 -111 11 -1 38 -5 61 -8 34 -6 45 -3
70 18 l29 25 -25 6 c-14 2 -43 8 -65 11 -27 5 -51 19 -78 45 l-38 39 -9 -25z"/>
<path d="M2912 2800 c0 -14 2 -19 5 -12 2 6 2 18 0 25 -3 6 -5 1 -5 -13z"/>
<path d="M3435 2789 c-4 -6 -5 -12 -2 -15 2 -3 7 2 10 11 7 17 1 20 -8 4z"/>
<path d="M2922 2740 c0 -19 2 -27 5 -17 2 9 2 25 0 35 -3 9 -5 1 -5 -18z"/>
<path d="M4090 2711 c-16 -31 -12 -69 11 -90 12 -11 18 -25 14 -31 -5 -7 0
-11 11 -9 11 1 36 -1 57 -6 44 -9 92 8 108 37 6 11 9 21 7 23 -2 1 -34 8 -73
14 -55 8 -75 16 -93 36 -12 15 -20 31 -17 36 4 5 2 9 -4 9 -6 0 -15 -9 -21
-19z"/>
<path d="M2933 2660 c0 -25 2 -35 4 -22 2 12 2 32 0 45 -2 12 -4 2 -4 -23z"/>
<path d="M3061 2674 c0 -11 3 -14 6 -6 3 7 2 16 -1 19 -3 4 -6 -2 -5 -13z"/>
<path d="M2829 2618 c-6 -24 -29 -81 -50 -128 -58 -124 -118 -180 -194 -180
-19 0 -35 -4 -35 -9 0 -5 -3 -16 -6 -24 -3 -10 4 -17 23 -22 40 -10 63 -34 63
-66 0 -37 -23 -144 -54 -249 l-24 -84 26 -51 c14 -27 33 -77 43 -110 l18 -60
0 41 c1 23 -8 72 -19 108 l-21 66 36 176 c19 97 42 191 50 208 8 17 58 81 110
141 89 103 95 112 90 145 -12 70 -30 140 -37 140 -4 0 -12 -19 -19 -42z"/>
<path d="M3070 2643 c0 -6 9 -21 21 -34 l20 -24 -17 30 c-24 39 -24 40 -24 28z"/>
<path d="M2942 2550 c0 -14 2 -19 5 -12 2 6 2 18 0 25 -3 6 -5 1 -5 -13z"/>
<path d="M3178 2563 c6 -2 18 -2 25 0 6 3 1 5 -13 5 -14 0 -19 -2 -12 -5z"/>
<path d="M3243 2553 c15 -2 37 -2 50 0 12 2 0 4 -28 4 -27 0 -38 -2 -22 -4z"/>
<path d="M4067 2554 c-14 -15 -6 -67 14 -92 11 -15 23 -26 25 -24 2 2 21 -2
41 -7 30 -9 43 -7 67 7 46 27 42 39 -14 46 -66 9 -98 24 -114 53 -6 13 -15 21
-19 17z"/>
<path d="M2932 2460 c0 -19 2 -27 5 -17 2 9 2 25 0 35 -3 9 -5 1 -5 -18z"/>
<path d="M2921 2404 c0 -11 3 -14 6 -6 3 7 2 16 -1 19 -3 4 -6 -2 -5 -13z"/>
<path d="M2533 1752 c-6 -4 -21 -28 -32 -54 -10 -25 -24 -47 -30 -49 -12 -4
27 -109 40 -109 4 0 13 34 20 77 8 49 19 83 31 95 15 15 17 22 7 34 -13 16
-19 17 -36 6z"/>
<path d="M2930 921 c0 -4 5 -33 11 -64 10 -48 17 -60 46 -77 56 -33 96 -166
67 -222 -18 -34 -24 -34 -72 -4 l-38 24 -61 -39 c-34 -21 -72 -53 -84 -71 -13
-18 -16 -27 -7 -20 12 9 22 10 44 1 l29 -11 -29 -15 c-23 -12 -34 -13 -48 -4
-14 9 -18 8 -18 -3 0 -49 61 -86 140 -86 47 0 55 4 100 46 27 25 64 68 81 96
l32 49 -17 59 c-9 34 -16 97 -16 147 0 113 -5 130 -40 138 -15 3 -49 19 -74
35 -25 16 -46 26 -46 21z m3 -526 c0 -6 -7 -11 -16 -13 -12 -3 -15 1 -11 13 7
17 25 17 27 0z"/>
<path d="M3483 869 c-24 -11 -43 -24 -43 -28 0 -5 -11 -12 -25 -15 -40 -10
-31 -33 13 -32 l37 1 -2 -48 c-1 -31 -10 -63 -28 -92 -25 -44 -44 -57 -46 -32
0 6 -5 1 -10 -12 -15 -37 -8 -41 40 -24 42 14 45 14 65 -6 11 -12 15 -21 9
-21 -7 0 -28 -14 -47 -31 l-35 -31 -26 26 -25 25 0 -24 c0 -30 84 -142 129
-172 60 -40 170 -24 205 30 27 41 -13 107 -91 150 -27 14 -64 39 -83 55 l-34
29 23 124 c13 68 26 130 29 137 6 16 -4 14 -55 -9z m187 -429 c35 -23 -42 -41
-82 -19 -17 9 -18 13 -7 20 19 12 70 11 89 -1z m-120 -45 c10 -12 9 -15 -8
-15 -11 0 -25 7 -32 15 -10 12 -9 15 8 15 11 0 25 -7 32 -15z"/>
</g>
</svg>
