<?xml version="1.0" standalone="no"?>
<!DOCTYPE svg PUBLIC "-//W3C//DTD SVG 20010904//EN"
 "http://www.w3.org/TR/2001/REC-SVG-20010904/DTD/svg10.dtd">
<svg version="1.0" xmlns="http://www.w3.org/2000/svg"
 width="267.000000pt" height="280.000000pt" viewBox="0 0 267.000000 280.000000"
 preserveAspectRatio="xMidYMid meet">

<g transform="translate(0.000000,280.000000) scale(0.100000,-0.100000)"
fill="#000000" stroke="none">
<path d="M1405 2679 c-4 -6 -4 -13 -1 -16 3 -4 6 -1 6 5 0 6 8 13 18 15 15 4
15 5 0 6 -9 0 -20 -4 -23 -10z"/>
<path d="M1457 2663 c4 -10 13 -23 21 -29 12 -9 11 -13 -4 -29 -19 -18 -19
-18 -25 11 -4 16 -7 21 -8 12 -1 -25 -20 -22 -31 5 l-9 22 0 -22 c-1 -13 -5
-23 -9 -23 -5 0 -17 -7 -28 -16 -18 -15 -18 -15 3 -5 33 16 54 13 60 -9 3 -11
9 -17 14 -14 5 3 9 1 9 -3 0 -5 -17 -17 -37 -28 -42 -23 -193 -164 -193 -181
0 -6 35 23 78 66 42 42 101 90 129 107 29 16 50 32 47 36 -3 3 3 19 15 36 22
30 22 30 1 41 -11 6 -19 16 -17 22 1 6 -4 13 -11 15 -8 3 -10 -1 -5 -14z"/>
<path d="M1270 2536 c-71 -47 -150 -127 -150 -151 0 -25 61 -125 87 -142 18
-12 21 -18 11 -24 -9 -6 -6 -9 10 -9 12 0 22 -4 22 -10 0 -5 -7 -10 -16 -10
-8 0 -12 -4 -9 -10 3 -5 1 -10 -4 -10 -17 0 -13 -47 5 -64 8 -9 19 -16 24 -16
5 0 11 -10 13 -22 3 -13 3 24 1 82 -1 58 1 96 5 86 5 -14 10 -16 15 -8 10 17
23 15 23 -3 0 -8 -4 -12 -8 -9 -4 2 -10 0 -14 -6 -4 -6 5 -10 20 -10 14 0 28
7 31 15 10 24 20 17 22 -14 2 -21 -3 -31 -16 -35 -10 -3 -25 -19 -35 -35 -17
-29 -17 -29 13 -44 16 -9 30 -11 30 -6 0 5 21 9 48 9 36 0 43 -3 32 -11 -13
-9 -13 -10 0 -5 8 3 23 9 33 12 9 4 17 10 17 14 0 5 3 15 6 24 4 11 1 16 -10
16 -9 0 -16 4 -16 8 0 5 -11 14 -25 20 -18 9 -25 19 -24 39 0 16 3 22 6 16 2
-7 17 -13 32 -13 40 0 51 -17 51 -79 0 -52 -2 -58 -41 -93 -29 -27 -40 -44
-36 -57 4 -17 2 -19 -22 -10 -14 6 -36 21 -49 35 -32 34 -54 30 -104 -17 -23
-22 -62 -49 -85 -59 -49 -22 -77 -61 -94 -134 -6 -28 -27 -84 -45 -125 -19
-41 -34 -89 -34 -107 0 -41 28 -72 71 -81 l31 -6 -5 -171 c-3 -125 -10 -190
-24 -243 l-19 -72 25 -25 25 -25 -13 -105 c-12 -105 -12 -105 14 -157 15 -28
28 -49 30 -47 2 2 -5 33 -16 68 -15 49 -18 77 -13 124 6 57 22 116 23 89 1 -9
17 -13 45 -13 47 0 56 -9 56 -59 0 -15 11 -64 24 -109 l23 -81 -36 14 -36 15
24 -20 c13 -11 32 -20 42 -20 10 0 25 -13 34 -29 16 -33 54 -63 67 -55 4 3 8
-9 8 -25 0 -26 -4 -31 -24 -31 -13 0 -41 11 -62 25 l-39 25 39 -35 c22 -19 47
-35 56 -35 27 0 37 -21 32 -66 -4 -41 -4 -41 -30 -29 -15 7 -40 16 -55 19 -25
6 -27 5 -18 -12 15 -27 -8 -66 -42 -70 -15 -2 -27 -8 -27 -13 0 -5 -3 -9 -7
-8 -18 3 -52 -14 -57 -28 -4 -11 -2 -13 9 -9 8 3 15 2 15 -3 0 -5 -8 -11 -17
-15 -10 -3 -25 -9 -33 -13 -13 -5 -13 -4 -1 11 12 15 12 16 -5 10 -59 -19 -79
-39 -68 -68 6 -16 23 -24 74 -37 49 -11 256 33 284 61 18 18 19 23 7 43 -24
38 -31 89 -20 150 6 35 6 64 1 73 -6 10 -5 30 1 50 9 28 15 34 39 34 15 0 28
-5 28 -10 0 -6 10 -24 22 -41 19 -25 23 -44 24 -108 1 -43 6 -86 12 -97 11
-18 11 -18 12 3 0 12 -3 23 -8 25 -4 2 -5 36 -2 77 5 69 6 72 21 55 9 -11 20
-37 23 -59 4 -22 16 -55 27 -74 11 -18 19 -34 17 -35 -2 0 -18 -11 -36 -24
-18 -13 -36 -21 -41 -18 -8 5 -21 -48 -21 -87 0 -10 11 -29 25 -42 20 -21 33
-25 77 -24 29 1 64 4 78 8 28 8 39 39 19 55 -8 6 -15 18 -17 26 -6 35 -36 89
-45 83 -6 -4 -7 -1 -2 6 4 8 -3 24 -20 41 -25 26 -26 33 -21 87 4 32 8 74 10
93 2 19 6 50 10 68 4 18 8 99 7 180 0 132 2 148 19 162 20 16 20 27 -10 220
-5 36 -13 133 -16 216 l-7 152 44 118 c56 154 59 208 12 256 -18 19 -33 43
-33 53 -1 11 -8 34 -16 50 -8 17 -12 21 -9 10 4 -11 9 -49 12 -84 4 -39 9 -58
13 -47 5 16 9 12 24 -19 25 -52 17 -115 -27 -233 -63 -167 -112 -217 -202
-209 -50 5 -144 41 -220 84 l-40 23 86 0 c48 0 101 -3 118 -6 27 -6 30 -10 25
-33 -4 -22 -2 -20 10 7 9 18 20 31 26 27 6 -3 10 3 10 16 0 21 1 21 18 6 26
-24 39 -21 17 3 -14 15 -15 20 -4 20 12 0 12 2 0 9 -10 6 -12 19 -6 47 8 44
53 134 68 134 5 0 18 11 29 25 11 14 25 25 33 25 13 0 26 22 24 43 0 7 -4 2
-9 -10 -5 -13 -18 -23 -28 -23 -10 0 -23 -5 -30 -12 -9 -9 -18 -9 -36 0 -25
11 -25 12 -11 53 16 43 21 174 8 182 -5 3 -9 -29 -9 -71 -2 -85 -22 -155 -47
-160 -25 -5 -21 40 8 98 15 29 25 67 25 92 0 24 7 52 15 62 8 11 15 30 15 43
0 14 6 23 16 23 8 0 12 -5 9 -11 -4 -5 0 -40 9 -77 8 -37 19 -92 24 -122 l10
-55 1 50 c0 28 -6 75 -14 105 -17 64 -18 73 -6 66 9 -6 -12 74 -24 95 -4 5
-11 6 -17 3 -7 -4 -8 -2 -4 4 4 7 14 12 22 12 25 0 17 49 -11 62 -16 7 -25 19
-25 34 0 15 -21 44 -60 82 -60 58 -60 59 -40 77 11 10 20 14 20 9 0 -5 14 -15
30 -22 41 -19 83 -92 78 -136 -3 -25 0 -32 9 -29 18 7 37 43 23 43 -5 0 -10 8
-10 17 0 28 -42 80 -88 109 l-43 27 28 23 c33 27 37 28 66 13 21 -12 21 -11 5
8 -10 11 -18 27 -18 36 0 9 -4 19 -10 22 -5 3 -10 -3 -10 -14 0 -13 -29 -42
-85 -87 -76 -59 -164 -151 -178 -186 -8 -20 -47 29 -47 59 0 13 -4 22 -9 19
-15 -10 -34 22 -27 47 5 23 97 116 166 169 54 41 32 33 -40 -16z m151 -192
c21 -14 45 -37 53 -49 16 -24 16 -24 -15 -13 -16 6 -31 9 -33 7 -48 -71 -49
-115 -1 -133 19 -7 19 -8 -6 -21 -21 -12 -32 -12 -53 -2 -29 14 -33 22 -11 31
20 7 19 54 -1 94 -18 36 -22 38 -50 17 -24 -18 -34 -19 -34 -1 0 20 77 96 97
96 9 0 34 -12 54 -26z m69 -104 c0 -5 -2 -10 -4 -10 -3 0 -8 5 -11 10 -3 6 -1
10 4 10 6 0 11 -4 11 -10z m60 -32 c0 -6 -3 -8 -7 -5 -3 4 -12 2 -20 -4 -8 -8
-13 -8 -13 -1 0 10 15 19 33 21 4 1 7 -4 7 -11z m-250 -227 c-5 -11 -11 -31
-12 -45 -2 -26 -9 -32 -21 -19 -4 3 -1 13 6 21 10 13 9 14 -10 8 -33 -10 -36
10 -6 33 37 27 57 28 43 2z m91 -22 c8 0 4 -5 -8 -11 -13 -6 -23 -20 -23 -32
-1 -20 -21 -56 -33 -56 -3 0 -10 15 -16 33 -10 26 -9 38 6 69 18 37 18 37 39
17 11 -10 27 -19 35 -20z m79 -9 c0 -5 -15 -17 -32 -25 -31 -14 -31 -15 -5
-10 32 6 34 -3 7 -55 -28 -54 -26 -75 9 -90 17 -6 35 -9 40 -5 19 11 24 -25 7
-44 -9 -10 -16 -23 -16 -29 0 -18 -18 -24 -38 -13 -12 6 -30 7 -48 1 -16 -4
-21 -9 -11 -9 16 -1 16 -4 -3 -41 -11 -21 -20 -58 -20 -80 0 -39 -1 -41 -27
-38 -24 3 -29 9 -34 43 l-6 40 -2 -44 -1 -44 -53 6 c-29 4 -69 2 -88 -3 -19
-6 -53 -7 -76 -4 -34 5 -44 11 -54 37 -18 42 -14 67 19 135 16 31 39 87 52
124 28 80 63 118 117 125 35 5 42 2 71 -31 18 -21 32 -48 32 -62 0 -25 2 -24
35 16 19 23 35 48 35 55 0 14 57 55 78 55 6 0 12 -4 12 -10z m-8 -315 c-5 -29
-17 -38 -41 -30 -24 7 -27 25 -9 43 20 20 54 11 50 -13z m-42 -88 c0 -25 -17
-47 -37 -47 -14 0 -17 27 -7 54 10 26 44 20 44 -7z m-174 -107 c171 -76 249
-77 314 -4 l30 35 2 -128 c0 -70 1 -135 0 -143 0 -8 6 -37 14 -64 16 -56 19
-136 5 -136 -6 0 -11 -19 -13 -42 l-3 -43 -231 0 -232 0 -12 67 c-14 81 -30
98 -30 31 0 -42 -2 -46 -15 -32 -13 13 -14 24 -4 70 6 30 15 63 19 74 5 11 11
85 14 165 6 140 13 200 23 200 3 0 56 -23 119 -50z m381 -472 c-3 -8 -6 -5 -6
6 -1 11 2 17 5 13 3 -3 4 -12 1 -19z m-236 -158 c5 -73 25 -171 45 -225 9 -23
-61 -20 -97 5 -41 30 -90 139 -97 216 -7 92 -5 95 75 92 l68 -3 6 -85z m208
-59 c-2 -82 0 -144 4 -138 5 7 5 -4 1 -23 -4 -19 -8 -51 -10 -70 -1 -19 -2
-41 -3 -47 -2 -24 -32 -13 -77 29 -55 51 -64 66 -80 143 -19 89 -18 93 19 57
18 -18 36 -32 41 -32 4 0 -6 11 -23 25 -50 43 -69 117 -52 203 1 1 42 2 92 2
l91 0 -3 -149z m-252 -419 c-3 -14 0 -33 6 -43 8 -13 7 -21 -2 -33 -15 -17
-41 -22 -41 -7 0 5 -13 22 -29 37 l-30 28 20 24 c10 14 19 31 19 39 0 11 6 11
31 -3 25 -13 30 -20 26 -42z m-84 -52 c-14 -13 -53 -22 -53 -12 0 11 42 31 53
25 5 -3 5 -9 0 -13z m341 -26 c9 -24 7 -28 -9 -14 -17 14 -20 30 -6 30 5 0 12
-7 15 -16z m-378 -15 c3 -6 2 -15 -4 -21 -6 -6 -12 -6 -16 1 -4 5 -13 8 -21 4
-8 -3 -15 0 -15 7 0 6 5 8 10 5 6 -3 10 -1 10 4 0 14 27 14 36 0z m-61 -28 c7
-12 -31 -25 -45 -16 -5 3 -10 10 -10 16 0 12 47 12 55 0z m503 -14 c11 -9 10
-12 -6 -18 -15 -6 -19 -14 -15 -31 3 -16 -3 -10 -21 17 -14 22 -26 43 -26 46
0 9 53 -2 68 -14z m-118 9 c0 -2 -8 -10 -17 -17 -16 -13 -17 -12 -4 4 13 16
21 21 21 13z m25 -16 c3 -5 1 -10 -4 -10 -6 0 -11 5 -11 10 0 6 2 10 4 10 3 0
8 -4 11 -10z m43 -37 c2 -8 -6 -13 -22 -13 -25 0 -33 10 -19 24 10 10 36 3 41
-11z m50 -8 c-3 -3 -9 2 -12 12 -6 14 -5 15 5 6 7 -7 10 -15 7 -18z m-117 -12
c13 -16 12 -17 -3 -4 -10 7 -18 15 -18 17 0 8 8 3 21 -13z"/>
<path d="M1133 1839 c-3 -17 -9 -26 -12 -21 -4 6 -5 -23 -3 -64 4 -64 2 -74
-12 -74 -10 0 -14 -4 -11 -10 3 -5 2 -10 -2 -10 -5 0 -18 -7 -29 -16 -18 -15
-18 -15 3 -5 30 15 31 15 26 -16 l-4 -28 13 25 c16 29 74 42 180 38 37 -2 70
1 75 6 4 4 -44 7 -107 5 l-115 -4 1 35 c1 19 3 65 6 103 5 71 1 87 -9 36z"/>
<path d="M1355 1108 c-40 -13 -75 -18 -105 -14 -30 3 -38 2 -25 -4 33 -14 78
-11 143 11 34 11 62 23 62 25 0 6 -9 4 -75 -18z"/>
<path d="M1484 1120 c-5 -5 -34 -23 -64 -39 -30 -17 -51 -31 -47 -31 15 0 103
49 116 64 15 17 11 22 -5 6z"/>
<path d="M1523 663 c9 -2 23 -2 30 0 6 3 -1 5 -18 5 -16 0 -22 -2 -12 -5z"/>
<path d="M1568 2445 c12 -16 24 -43 28 -60 l6 -30 -30 36 c-31 36 -87 67 -99
55 -3 -3 1 -6 10 -6 23 0 88 -59 103 -95 l12 -30 11 28 c13 33 -5 82 -41 114
l-21 18 21 -30z"/>
<path d="M1320 2190 c-8 -5 -10 -10 -5 -10 6 0 17 5 25 10 8 5 11 10 5 10 -5
0 -17 -5 -25 -10z"/>
<path d="M1438 2193 c7 -3 16 -2 19 1 4 3 -2 6 -13 5 -11 0 -14 -3 -6 -6z"/>
<path d="M1360 2055 c0 -10 10 -15 34 -15 41 0 56 15 23 24 -37 10 -57 7 -57
-9z m43 -2 c-7 -2 -19 -2 -25 0 -7 3 -2 5 12 5 14 0 19 -2 13 -5z"/>
<path d="M1140 587 c0 -33 30 -125 45 -137 19 -16 19 -1 0 24 -8 11 -15 26
-15 34 0 12 5 11 22 -4 13 -10 17 -12 11 -4 -6 8 -23 35 -37 60 -16 27 -26 38
-26 27z"/>
</g>
</svg>
